<svg id="Component_66_2" data-name="Component 66 – 2" xmlns="http://www.w3.org/2000/svg" width="115" height="115" viewBox="0 0 115 115">
  <circle id="Ellipse_1659" data-name="Ellipse 1659" cx="57.5" cy="57.5" r="57.5" fill="#dadada"/>
  <g id="Group_1600" data-name="Group 1600" transform="translate(45.984 43)">
    <path id="Path_5063" data-name="Path 5063" d="M-1452.641,248c-2.584,0-5.172-.087-7.75.027-2.1.094-3.922-1.238-3.609-4.04a11.539,11.539,0,0,1,9.558-10.328,11.47,11.47,0,0,1,13.054,9.048,10.786,10.786,0,0,1,.2,2.636,2.985,2.985,0,0,1-3.019,2.653C-1447.021,248.009-1449.831,248-1452.641,248Z" transform="translate(1464.035 -219.035)" fill="#565656"/>
    <path id="Path_5064" data-name="Path 5064" d="M-1413.519,118.69a6.45,6.45,0,0,1-6.442-6.539,6.455,6.455,0,0,1,6.567-6.413,6.462,6.462,0,0,1,6.357,6.567A6.454,6.454,0,0,1-1413.519,118.69Z" transform="translate(1424.949 -105.737)" fill="#565656"/>
  </g>
</svg>
